# Blender 4.1.1
# www.blender.org
mtllib table.mtl
o Table_-_Rectangular
v 4.000001 3.220000 -1.979999
v 3.980001 3.220000 -1.999999
v 3.980001 3.200000 -1.979998
v 3.979998 3.380235 2.000002
v 3.980233 3.400000 1.980237
v 3.999998 3.380235 1.980002
v -2.890281 -0.000000 1.529719
v -3.109720 3.200000 1.529717
v -2.890283 3.200000 1.529720
v -3.109719 -0.000000 1.529719
v -3.129720 3.200000 1.509717
v -3.129719 -0.000000 1.509719
v 3.980000 3.200000 1.980000
v -3.979999 3.200000 -1.980001
v -3.980000 3.200000 1.980000
v 3.980001 3.200000 -1.979998
v 4.000001 3.220000 -1.979999
v 4.000000 3.220000 1.980000
v -3.979999 3.220000 -2.000001
v 3.980000 3.380235 -2.000000
v -3.979999 3.380235 -2.000002
v 3.980001 3.220000 -1.999999
v 3.980001 3.200000 -1.979998
v -3.979999 3.200000 -1.980001
v 4.000000 3.380235 -1.980000
v 4.000001 3.220000 -1.979999
v 3.980235 3.400000 -1.980235
v -4.000000 3.220000 1.980000
v -3.999999 3.380235 -1.980002
v -4.000002 3.380235 1.979998
v -3.999999 3.220000 -1.980001
v -3.979999 3.200000 -1.980001
v -3.980000 3.200000 1.980000
v -3.979999 3.220000 -2.000001
v -3.979999 3.380235 -2.000002
v -3.980234 3.400000 -1.980237
v -2.870283 3.200000 1.509720
v -2.870281 3.200000 1.290281
v -2.870280 -0.000000 1.290282
v -2.870281 -0.000000 1.509719
v -2.890283 3.200000 1.529720
v -2.890281 -0.000000 1.529719
v -2.890281 0.000000 -1.529719
v -3.109720 3.200000 -1.529717
v -3.109719 0.000000 -1.529719
v -2.890283 3.200000 -1.529720
v -2.870283 3.200000 -1.509720
v -2.870281 0.000000 -1.509719
v -2.870281 -0.000000 1.509719
v -2.870280 -0.000000 1.290282
v -2.890280 -0.000000 1.270282
v -2.890281 -0.000000 1.529719
v -3.109718 -0.000000 1.270281
v -3.109719 -0.000000 1.529719
v -3.129718 -0.000000 1.290281
v -3.129719 -0.000000 1.509719
v -3.109718 -0.000000 1.270281
v -2.890281 3.200000 1.270281
v -3.109718 3.200000 1.270280
v -2.890280 -0.000000 1.270282
v -2.870281 3.200000 1.290281
v -2.870280 -0.000000 1.290282
v -2.890281 3.200000 1.270281
v -2.870281 3.200000 1.290281
v -2.870283 3.200000 1.509720
v -2.890283 3.200000 1.529720
v -3.109718 3.200000 1.270280
v -3.109720 3.200000 1.529717
v -3.129718 3.200000 1.290280
v -3.129720 3.200000 1.509717
v -3.129719 -0.000000 1.509719
v -3.129718 3.200000 1.290280
v -3.129720 3.200000 1.509717
v -3.129718 -0.000000 1.290281
v -3.109718 3.200000 1.270280
v -3.109718 -0.000000 1.270281
v -2.870283 3.200000 -1.509720
v -2.870281 0.000000 -1.509719
v -2.870280 0.000000 -1.290282
v -2.870281 3.200000 -1.290282
v -2.890281 3.200000 -1.270281
v -2.890280 0.000000 -1.270282
v 2.890281 -0.000000 1.529719
v 3.109720 3.200000 1.529717
v 3.109719 -0.000000 1.529719
v 2.890283 3.200000 1.529720
v 2.870283 3.200000 1.509720
v 2.870281 -0.000000 1.509719
v -2.890280 0.000000 -1.270282
v -2.870280 0.000000 -1.290282
v -2.870281 0.000000 -1.509719
v -2.890281 0.000000 -1.529719
v -3.109718 0.000000 -1.270281
v -3.109719 0.000000 -1.529719
v -3.129718 0.000000 -1.290281
v -3.129719 0.000000 -1.509719
v -3.109718 0.000000 -1.270281
v -2.890281 3.200000 -1.270281
v -2.890280 0.000000 -1.270282
v -3.109718 3.200000 -1.270281
v -3.129718 3.200000 -1.290280
v -3.129718 0.000000 -1.290281
v -2.870283 3.200000 -1.509720
v -2.870281 3.200000 -1.290282
v -2.890281 3.200000 -1.270281
v -2.890283 3.200000 -1.529720
v -3.109718 3.200000 -1.270281
v -3.109720 3.200000 -1.529717
v -3.129718 3.200000 -1.290280
v -3.129720 3.200000 -1.509717
v -3.129719 0.000000 -1.509719
v -3.129718 3.200000 -1.290280
v -3.129718 0.000000 -1.290281
v -3.129720 3.200000 -1.509717
v -3.109720 3.200000 -1.529717
v -3.109719 0.000000 -1.529719
v 2.870283 3.200000 1.509720
v 2.870281 -0.000000 1.509719
v 2.870280 -0.000000 1.290282
v 2.870281 3.200000 1.290282
v 2.890281 3.200000 1.270281
v 2.890280 -0.000000 1.270282
v 2.890281 0.000000 -1.529719
v 3.109720 3.200000 -1.529717
v 2.890283 3.200000 -1.529720
v 3.109719 0.000000 -1.529719
v 3.129720 3.200000 -1.509717
v 3.129719 0.000000 -1.509719
v 3.109719 -0.000000 1.529719
v 3.129719 -0.000000 1.509719
v 3.129718 -0.000000 1.290281
v 3.109718 -0.000000 1.270281
v 2.890281 -0.000000 1.529719
v 2.890280 -0.000000 1.270282
v 2.870281 -0.000000 1.509719
v 2.870280 -0.000000 1.290282
v 3.109718 -0.000000 1.270281
v 2.890281 3.200000 1.270281
v 2.890280 -0.000000 1.270282
v 3.109718 3.200000 1.270281
v 3.129718 3.200000 1.290280
v 3.129718 -0.000000 1.290281
v 3.129718 3.200000 1.290280
v 3.129720 3.200000 1.509717
v 3.109720 3.200000 1.529717
v 3.109718 3.200000 1.270281
v 2.890283 3.200000 1.529720
v 2.890281 3.200000 1.270281
v 2.870283 3.200000 1.509720
v 2.870281 3.200000 1.290282
v 3.129719 -0.000000 1.509719
v 3.129718 3.200000 1.290280
v 3.129718 -0.000000 1.290281
v 3.129720 3.200000 1.509717
v 3.109720 3.200000 1.529717
v 3.109719 -0.000000 1.529719
v 2.870283 3.200000 -1.509720
v 2.870281 3.200000 -1.290281
v 2.870280 0.000000 -1.290282
v 2.870281 0.000000 -1.509719
v 2.890283 3.200000 -1.529720
v 2.890281 0.000000 -1.529719
v 3.129718 0.000000 -1.290281
v 3.129719 0.000000 -1.509719
v 3.109719 0.000000 -1.529719
v 3.109718 0.000000 -1.270281
v 2.890281 0.000000 -1.529719
v 2.890280 0.000000 -1.270282
v 2.870281 0.000000 -1.509719
v 2.870280 0.000000 -1.290282
v 3.109718 0.000000 -1.270281
v 2.890281 3.200000 -1.270281
v 3.109718 3.200000 -1.270280
v 2.890280 0.000000 -1.270282
v 2.870281 3.200000 -1.290281
v 2.870280 0.000000 -1.290282
v 3.109720 3.200000 -1.529717
v 3.129720 3.200000 -1.509717
v 3.129718 3.200000 -1.290280
v 3.109718 3.200000 -1.270280
v 2.890283 3.200000 -1.529720
v 2.890281 3.200000 -1.270281
v 2.870283 3.200000 -1.509720
v 2.870281 3.200000 -1.290281
v 3.129719 0.000000 -1.509719
v 3.129718 3.200000 -1.290280
v 3.129720 3.200000 -1.509717
v 3.129718 0.000000 -1.290281
v 3.109718 3.200000 -1.270280
v 3.109718 0.000000 -1.270281
v 3.980000 3.220000 2.000000
v 4.000000 3.220000 1.980000
v 3.980000 3.200000 1.980000
v -3.980000 3.200000 1.980000
v -3.980000 3.220000 2.000000
v -4.000000 3.220000 1.980000
v -4.000002 3.380235 1.979998
v -3.980002 3.380235 1.999997
v 3.979998 3.380235 2.000002
v -3.980238 3.400000 1.980233
v 4.000000 3.220000 1.980000
v 3.980000 3.220000 2.000000
v 3.979998 3.380235 2.000002
v 3.999998 3.380235 1.980002
v 4.000001 3.220000 -1.979999
v 4.000000 3.380235 -1.980000
v 3.980235 3.400000 -1.980235
v 3.980233 3.400000 1.980237
v -3.980238 3.400000 1.980233
v -4.000002 3.380235 1.979998
v -3.999999 3.380235 -1.980002
v -3.980234 3.400000 -1.980237
v 3.980233 3.400000 1.980237
v -3.980002 3.380235 1.999997
v 3.979998 3.380235 2.000002
v 3.980235 3.400000 -1.980235
v 3.980000 3.380235 -2.000000
v -3.979999 3.380235 -2.000002
vn 0.3416 -0.8756 -0.3416
vn 0.3416 -0.3416 -0.8756
vn 0.8756 -0.3416 -0.3416
vn 0.8760 0.3409 0.3411
vn 0.3428 0.8746 0.3428
vn 0.3411 0.3409 0.8760
vn 0.3826 -0.0000 0.9239
vn -0.3827 -0.0000 0.9239
vn -0.9239 -0.0000 0.3827
vn -0.3416 -0.8756 0.3416
vn -0.3416 -0.8756 -0.3416
vn 0.3416 -0.8756 0.3416
vn 0.8756 -0.3416 0.3416
vn -0.3411 0.3409 -0.8760
vn 0.3411 0.3409 -0.8760
vn -0.3415 -0.3416 -0.8756
vn 0.8760 0.3409 -0.3412
vn 0.3428 0.8746 -0.3428
vn -0.8760 0.3409 0.3411
vn -0.8761 0.3408 -0.3411
vn -0.8756 -0.3416 0.3415
vn -0.8756 -0.3416 -0.3416
vn -0.3416 -0.3416 -0.8756
vn -0.3428 0.8746 -0.3428
vn 0.9239 -0.0000 -0.3826
vn 0.9239 -0.0000 0.3827
vn 0.3827 -0.0000 0.9239
vn 0.3827 -0.0002 0.9239
vn -0.3827 -0.0000 -0.9239
vn 0.3827 -0.0000 -0.9239
vn 0.9239 -0.0000 -0.3827
vn -0.0000 -1.0000 -0.0000
vn -0.3826 -0.0000 -0.9239
vn -0.0000 1.0000 -0.0000
vn -0.9239 -0.0000 0.3826
vn -0.9239 -0.0000 -0.3827
vn -0.3827 0.0001 -0.9239
vn -0.9239 0.0001 0.3827
vn 0.9239 0.0001 -0.3827
vn -0.3827 -0.0002 -0.9239
vn 0.3827 0.0001 0.9239
vn 0.3415 -0.3416 0.8756
vn -0.3416 -0.8755 0.3416
vn -0.3416 -0.3416 0.8756
vn -0.8756 -0.3416 0.3416
vn -0.8760 0.3409 0.3412
vn -0.3411 0.3409 0.8760
vn -0.3428 0.8746 0.3428
vn 0.3411 0.3408 0.8761
vn 0.3416 -0.3416 0.8756
vn 0.8761 0.3408 0.3411
vn 0.8761 0.3409 -0.3411
vn -0.8760 0.3409 -0.3411
vn -0.3428 0.8747 0.3428
vn -0.3428 0.8747 -0.3428
vn 0.3427 0.8746 -0.3428
vt 0.592923 0.770389
vt 0.590572 0.769032
vt 0.592923 0.767674
vt 0.595880 0.769048
vt 0.593539 0.770357
vt 0.593539 0.767674
vt 0.876028 0.691927
vt 0.854966 0.691927
vt 0.876028 0.384776
vt 0.854966 0.384776
vt 0.852251 0.691927
vt 0.852251 0.384776
vt 0.386433 0.000308
vt 0.766531 0.000308
vt 0.386433 0.764344
vt 0.766531 0.764344
vt 0.766531 0.767059
vt 0.386433 0.767059
vt 0.788159 0.767055
vt 0.790469 0.003023
vt 0.803539 0.767102
vt 0.805849 0.003069
vt 0.808564 0.003077
vt 0.806254 0.767110
vt 0.790477 0.000308
vt 0.805857 0.000354
vt 0.788159 0.001658
vt 0.809180 0.384051
vt 0.811495 0.003290
vt 0.824587 0.384144
vt 0.826873 0.005470
vt 0.829585 0.005111
vt 0.827294 0.384161
vt 0.827654 0.002843
vt 0.811948 0.000308
vt 0.809180 0.001413
vt 0.997993 0.384776
vt 0.997993 0.691927
vt 0.976930 0.691927
vt 0.976930 0.384776
vt 0.974216 0.691927
vt 0.974216 0.384776
vt 0.853978 0.000308
vt 0.853978 0.307458
vt 0.832915 0.000308
vt 0.832915 0.307458
vt 0.830200 0.307458
vt 0.830200 0.000308
vt 0.513404 0.790657
vt 0.511485 0.792576
vt 0.490422 0.792576
vt 0.488502 0.790657
vt 0.513404 0.769594
vt 0.488502 0.769594
vt 0.511485 0.767674
vt 0.490422 0.767674
vt 0.900421 0.691927
vt 0.879359 0.691927
vt 0.900421 0.384776
vt 0.879359 0.384776
vt 0.876644 0.691927
vt 0.876644 0.384776
vt 0.462985 0.790657
vt 0.462985 0.769594
vt 0.464905 0.767674
vt 0.464905 0.792576
vt 0.485967 0.767674
vt 0.485967 0.792576
vt 0.487887 0.769594
vt 0.487887 0.790656
vt 0.975943 0.307458
vt 0.954880 0.307458
vt 0.975943 0.000308
vt 0.954880 0.000308
vt 0.952165 0.307458
vt 0.952165 0.000308
vt 0.906094 0.000308
vt 0.927157 0.000308
vt 0.927157 0.307458
vt 0.906094 0.307458
vt 0.903379 0.307458
vt 0.903380 0.000308
vt 0.973600 0.384776
vt 0.973600 0.691927
vt 0.952538 0.384776
vt 0.952538 0.691927
vt 0.949823 0.691927
vt 0.949823 0.384776
vt 0.541457 0.767674
vt 0.562519 0.767674
vt 0.564439 0.769594
vt 0.539537 0.769594
vt 0.564439 0.790657
vt 0.539537 0.790657
vt 0.562519 0.792576
vt 0.541457 0.792576
vt 0.902764 0.000308
vt 0.902764 0.307458
vt 0.881701 0.000308
vt 0.881701 0.307458
vt 0.878986 0.307458
vt 0.878986 0.000308
vt 0.409415 0.767674
vt 0.411335 0.769594
vt 0.411335 0.790657
vt 0.409415 0.792576
vt 0.388352 0.767674
vt 0.388352 0.792576
vt 0.386433 0.769594
vt 0.386433 0.790657
vt 0.876028 0.692542
vt 0.876028 0.999692
vt 0.854966 0.692542
vt 0.854966 0.999692
vt 0.852251 0.999692
vt 0.852251 0.692542
vt 0.857308 0.000308
vt 0.878371 0.000308
vt 0.878371 0.307458
vt 0.857308 0.307458
vt 0.854594 0.307458
vt 0.854594 0.000308
vt 0.924814 0.691927
vt 0.903752 0.691927
vt 0.924814 0.384776
vt 0.903752 0.384776
vt 0.901037 0.691927
vt 0.901037 0.384776
vt 0.566974 0.767674
vt 0.588037 0.767674
vt 0.589957 0.769594
vt 0.565055 0.769594
vt 0.589956 0.790657
vt 0.565055 0.790657
vt 0.588037 0.792576
vt 0.566974 0.792576
vt 0.951550 0.000308
vt 0.951550 0.307458
vt 0.930487 0.000308
vt 0.930487 0.307458
vt 0.927772 0.307458
vt 0.927772 0.000308
vt 0.434932 0.767674
vt 0.436852 0.769594
vt 0.436852 0.790657
vt 0.434932 0.792576
vt 0.413870 0.767674
vt 0.413870 0.792576
vt 0.411950 0.769594
vt 0.411950 0.790657
vt 0.900421 0.692542
vt 0.900421 0.999692
vt 0.879359 0.692542
vt 0.879359 0.999692
vt 0.876644 0.999692
vt 0.876644 0.692542
vt 0.949207 0.384776
vt 0.949207 0.691927
vt 0.928145 0.691927
vt 0.928145 0.384776
vt 0.925430 0.691927
vt 0.925430 0.384776
vt 0.538922 0.790657
vt 0.537002 0.792576
vt 0.515939 0.792576
vt 0.514020 0.790657
vt 0.538922 0.769594
vt 0.514020 0.769594
vt 0.537002 0.767674
vt 0.515939 0.767674
vt 0.851635 0.691927
vt 0.830573 0.691927
vt 0.851635 0.384776
vt 0.830573 0.384776
vt 0.827858 0.691927
vt 0.827858 0.384776
vt 0.437468 0.790656
vt 0.437468 0.769594
vt 0.439387 0.767674
vt 0.439387 0.792576
vt 0.460450 0.767674
vt 0.460450 0.792576
vt 0.462369 0.769594
vt 0.462369 0.790657
vt 0.851635 0.999692
vt 0.830573 0.999692
vt 0.851635 0.692542
vt 0.830573 0.692542
vt 0.827858 0.999692
vt 0.827858 0.692542
vt 0.785255 0.768226
vt 0.783893 0.770570
vt 0.782544 0.768218
vt 0.787544 0.005068
vt 0.784830 0.005435
vt 0.785604 0.002807
vt 0.769909 0.000308
vt 0.769463 0.003287
vt 0.767146 0.768171
vt 0.767147 0.001417
vt 0.811863 0.384776
vt 0.827243 0.384776
vt 0.827243 0.387491
vt 0.811863 0.387491
vt 0.827243 0.767590
vt 0.811863 0.767590
vt 0.809180 0.767612
vt 0.809180 0.387469
vt 0.383112 0.767072
vt 0.003013 0.767072
vt 0.002991 0.764389
vt 0.383134 0.764389
vt 0.002991 0.000308
vt 0.000308 0.764367
vt 0.000308 0.000330
vt 0.383134 0.000308
vt 0.385817 0.000330
vt 0.385817 0.764366
s 1
usemtl Wood_Planks
f 3/1/1 2/2/2 1/3/3
f 6/4/4 5/5/5 4/6/6
f 9/7/7 8/8/8 7/9/7
f 8/8/8 10/10/8 7/9/7
f 8/8/8 11/11/9 10/10/8
f 11/11/9 12/12/9 10/10/8
f 15/13/10 14/14/11 13/15/12
f 14/14/11 16/16/1 13/15/12
f 16/16/1 17/17/3 13/15/12
f 17/17/3 18/18/13 13/15/12
f 21/19/14 20/20/15 19/21/16
f 20/20/15 22/22/2 19/21/16
f 22/22/2 23/23/1 19/21/16
f 23/23/1 24/24/11 19/21/16
f 20/20/15 25/25/17 22/22/2
f 25/25/17 26/26/3 22/22/2
f 27/27/18 25/25/17 20/20/15
f 30/28/19 29/29/20 28/30/21
f 29/29/20 31/31/22 28/30/21
f 31/31/22 32/32/11 28/30/21
f 32/32/11 33/33/10 28/30/21
f 34/34/23 32/32/11 31/31/22
f 35/35/14 34/34/23 31/31/22
f 29/29/20 35/35/14 31/31/22
f 36/36/24 35/35/14 29/29/20
f 39/37/25 38/38/25 37/39/26
f 40/40/26 39/37/25 37/39/26
f 37/39/26 41/41/27 40/40/26
f 41/41/27 42/42/28 40/40/26
f 45/43/29 44/44/29 43/45/30
f 44/44/29 46/46/30 43/45/30
f 46/46/30 47/47/31 43/45/30
f 47/47/31 48/48/31 43/45/30
f 51/49/32 50/50/32 49/51/32
f 49/51/32 52/52/32 51/49/32
f 52/52/32 53/53/32 51/49/32
f 52/52/32 54/54/32 53/53/32
f 54/54/32 55/55/32 53/53/32
f 54/54/32 56/56/32 55/55/32
f 59/57/33 58/58/30 57/59/33
f 58/58/30 60/60/30 57/59/33
f 58/58/30 61/61/31 60/60/30
f 61/61/31 62/62/31 60/60/30
f 65/63/34 64/64/34 63/65/34
f 63/65/34 66/66/34 65/63/34
f 63/65/34 67/67/34 66/66/34
f 67/67/34 68/68/34 66/66/34
f 67/67/34 69/69/34 68/68/34
f 69/69/34 70/70/34 68/68/34
f 73/71/35 72/72/36 71/73/35
f 72/72/36 74/74/36 71/73/35
f 72/72/36 75/75/29 74/74/36
f 75/75/29 76/76/37 74/74/36
f 79/77/26 78/78/31 77/79/31
f 80/80/26 79/77/26 77/79/31
f 80/80/26 81/81/27 79/77/26
f 81/81/27 82/82/27 79/77/26
f 85/83/27 84/84/27 83/85/8
f 84/84/27 86/86/8 83/85/8
f 86/86/8 87/87/9 83/85/8
f 87/87/9 88/88/9 83/85/8
f 91/89/32 90/90/32 89/91/32
f 89/91/32 92/92/32 91/89/32
f 89/91/32 93/93/32 92/92/32
f 93/93/32 94/94/32 92/92/32
f 93/93/32 95/95/32 94/94/32
f 95/95/32 96/96/32 94/94/32
f 99/97/27 98/98/27 97/99/8
f 98/98/27 100/100/8 97/99/8
f 100/100/8 101/101/9 97/99/8
f 101/101/9 102/102/38 97/99/8
f 105/103/34 104/104/34 103/105/34
f 103/105/34 106/106/34 105/103/34
f 106/106/34 107/107/34 105/103/34
f 106/106/34 108/108/34 107/107/34
f 108/108/34 109/109/34 107/107/34
f 108/108/34 110/110/34 109/109/34
f 113/111/9 112/112/9 111/113/36
f 112/112/9 114/114/36 111/113/36
f 114/114/36 115/115/29 111/113/36
f 115/115/29 116/116/29 111/113/36
f 119/117/36 118/118/9 117/119/9
f 120/120/36 119/117/36 117/119/9
f 120/120/36 121/121/29 119/117/36
f 121/121/29 122/122/29 119/117/36
f 125/123/33 124/124/30 123/125/33
f 124/124/30 126/126/30 123/125/33
f 124/124/30 127/127/31 126/126/30
f 127/127/31 128/128/31 126/126/30
f 131/129/32 130/130/32 129/131/32
f 129/131/32 132/132/32 131/129/32
f 129/131/32 133/133/32 132/132/32
f 133/133/32 134/134/32 132/132/32
f 133/133/32 135/135/32 134/134/32
f 135/135/32 136/136/32 134/134/32
f 139/137/29 138/138/29 137/139/30
f 138/138/29 140/140/30 137/139/30
f 140/140/30 141/141/31 137/139/30
f 141/141/31 142/142/39 137/139/30
f 145/143/34 144/144/34 143/145/34
f 143/145/34 146/146/34 145/143/34
f 146/146/34 147/147/34 145/143/34
f 146/146/34 148/148/34 147/147/34
f 148/148/34 149/149/34 147/147/34
f 148/148/34 150/150/34 149/149/34
f 153/151/31 152/152/31 151/153/26
f 152/152/31 154/154/26 151/153/26
f 154/154/26 155/155/27 151/153/26
f 155/155/27 156/156/27 151/153/26
f 159/157/35 158/158/35 157/159/36
f 160/160/36 159/157/35 157/159/36
f 157/159/36 161/161/29 160/160/36
f 161/161/29 162/162/40 160/160/36
f 165/163/32 164/164/32 163/165/32
f 163/165/32 166/166/32 165/163/32
f 166/166/32 167/167/32 165/163/32
f 166/166/32 168/168/32 167/167/32
f 168/168/32 169/169/32 167/167/32
f 168/168/32 170/170/32 169/169/32
f 173/171/7 172/172/8 171/173/7
f 172/172/8 174/174/8 171/173/7
f 172/172/8 175/175/9 174/174/8
f 175/175/9 176/176/9 174/174/8
f 179/177/34 178/178/34 177/179/34
f 177/179/34 180/180/34 179/177/34
f 177/179/34 181/181/34 180/180/34
f 181/181/34 182/182/34 180/180/34
f 181/181/34 183/183/34 182/182/34
f 183/183/34 184/184/34 182/182/34
f 187/185/25 186/186/26 185/187/25
f 186/186/26 188/188/26 185/187/25
f 186/186/26 189/189/27 188/188/26
f 189/189/27 190/190/41 188/188/26
f 193/191/12 192/192/13 191/193/42
f 194/194/43 193/191/12 191/193/42
f 195/195/44 194/194/43 191/193/42
f 196/196/45 194/194/43 195/195/44
f 197/197/46 196/196/45 195/195/44
f 198/198/47 195/195/44 191/193/42
f 198/198/47 197/197/46 195/195/44
f 199/199/6 198/198/47 191/193/42
f 200/200/48 197/197/46 198/198/47
f 203/201/49 202/202/50 201/203/13
f 204/204/51 203/201/49 201/203/13
f 201/203/13 205/205/3 204/204/51
f 205/205/3 206/206/52 204/204/51
f 206/206/52 207/207/18 204/204/51
f 207/207/18 208/208/5 204/204/51
f 211/209/53 210/210/19 209/211/54
f 212/212/55 211/209/53 209/211/54
f 212/212/55 209/211/54 213/213/5
f 209/211/54 214/214/47 213/213/5
f 214/214/47 215/215/6 213/213/5
f 216/216/56 212/212/55 213/213/5
f 216/216/56 217/217/15 212/212/55
f 217/217/15 218/218/14 212/212/55
